<?xml version="1.0" encoding="utf-8"?>
<svg width="1024px" height="1024px" viewBox="0 0 1024 1024" version="1.1" xmlns:xlink="http://www.w3.org/1999/xlink" xmlns="http://www.w3.org/2000/svg">
  <g id="编组">
    <path d="M0 0L1024 0L1024 1024L0 1024L0 0Z" id="矩形" fill="#CD0054" fill-rule="evenodd" stroke="none" />
    <g id="NeoNem" fill="#FFFFFF">
      <path d="M40.54 594.61C42.6667 596.81 45.3433 597.91 48.57 597.91C51.9433 597.91 54.6933 596.81 56.82 594.61Q60.01 591.31 60.01 586.47L60.01 466.35L155.93 593.95Q157.47 595.93 160 596.92C161.687 597.58 163.263 597.91 164.73 597.91C168.103 597.91 170.817 596.81 172.87 594.61Q175.95 591.31 175.95 586.47L175.95 437.53Q175.95 432.47 172.87 429.28Q169.79 426.09 164.73 426.09Q159.89 426.09 156.59 429.28Q153.29 432.47 153.29 437.53L153.29 557.87L57.37 430.27Q53.85 426.09 48.57 426.09Q43.73 426.09 40.54 429.28Q37.35 432.47 37.35 437.53L37.35 586.47Q37.35 591.31 40.54 594.61ZM508.26 594.61C510.387 596.81 513.063 597.91 516.29 597.91C519.663 597.91 522.413 596.81 524.54 594.61Q527.73 591.31 527.73 586.47L527.73 466.35L623.65 593.95Q625.19 595.93 627.72 596.92C629.407 597.58 630.983 597.91 632.45 597.91C635.823 597.91 638.537 596.81 640.59 594.61Q643.67 591.31 643.67 586.47L643.67 437.53Q643.67 432.47 640.59 429.28Q637.51 426.09 632.45 426.09Q627.61 426.09 624.31 429.28Q621.01 432.47 621.01 437.53L621.01 557.87L525.09 430.27Q521.57 426.09 516.29 426.09Q511.45 426.09 508.26 429.28Q505.07 432.47 505.07 437.53L505.07 586.47Q505.07 591.31 508.26 594.61ZM898.76 594.94Q901.95 598.13 906.79 598.13Q911.85 598.13 914.93 594.94Q918.01 591.75 918.01 586.91L918.01 524.87Q918.01 512.55 925.38 504.63Q932.75 496.71 944.19 496.71Q955.19 496.71 962.01 503.42Q968.83 510.13 968.83 523.99L968.83 586.91Q968.83 591.75 972.02 594.94Q975.21 598.13 980.05 598.13Q985.11 598.13 988.19 594.94Q991.27 591.75 991.27 586.91L991.27 523.99Q991.27 508.81 985.88 498.14Q980.49 487.47 970.81 481.97Q961.13 476.47 948.59 476.47Q934.29 476.47 923.18 482.63Q915.366 486.963 910.001 493.635Q905.07 486.243 897.55 481.97Q887.87 476.47 875.33 476.47Q862.35 476.47 852.23 482.63Q847.992 485.21 844.525 488.619Q844.41 483.83 841.45 480.87Q838.37 477.79 833.31 477.79Q828.47 477.79 825.28 480.87Q822.09 483.95 822.09 489.01L822.09 586.91Q822.09 591.75 825.28 594.94Q828.47 598.13 833.31 598.13Q838.37 598.13 841.45 594.94Q844.53 591.75 844.53 586.91L844.53 524.87Q844.53 512.55 852.01 504.63Q859.49 496.71 870.93 496.71Q881.93 496.71 888.75 503.42Q895.57 510.13 895.57 523.99L895.57 586.91Q895.57 591.75 898.76 594.94ZM241.84 590.98Q256.03 598.79 274.29 598.79Q284.41 598.79 295.52 595.05Q306.63 591.31 314.11 585.37Q317.85 582.51 317.63 578.55Q317.41 574.59 313.67 571.29Q310.81 568.87 306.96 568.98Q303.11 569.09 299.81 571.51Q295.41 574.81 288.26 577.34Q281.11 579.87 274.29 579.87Q261.75 579.87 252.07 574.37Q242.39 568.87 236.89 559.41Q233.205 553.072 231.989 545.55L315.65 545.55Q320.05 545.55 322.91 542.8Q325.77 540.05 325.77 535.87Q325.77 518.49 319.28 505.18Q312.79 491.87 300.47 484.28Q288.15 476.69 270.99 476.69Q253.61 476.69 240.19 484.5Q226.77 492.31 219.18 506.06Q211.59 519.81 211.59 537.85Q211.59 555.67 219.62 569.42Q227.65 583.17 241.84 590.98ZM408.93 598.79Q391.11 598.79 377.47 590.98Q363.83 583.17 356.02 569.42Q348.21 555.67 348.21 537.85Q348.21 519.81 356.02 506.06Q363.83 492.31 377.47 484.5Q391.11 476.69 408.93 476.69Q426.53 476.69 440.17 484.5Q453.81 492.31 461.62 506.06Q469.43 519.81 469.43 537.85Q469.43 555.67 461.73 569.42Q454.03 583.17 440.39 590.98Q426.75 598.79 408.93 598.79ZM742.01 598.79Q723.75 598.79 709.56 590.98Q695.37 583.17 687.34 569.42Q679.31 555.67 679.31 537.85Q679.31 519.81 686.9 506.06Q694.49 492.31 707.91 484.5Q721.33 476.69 738.71 476.69Q755.87 476.69 768.19 484.28Q780.51 491.87 787 505.18Q793.49 518.49 793.49 535.87Q793.49 540.05 790.63 542.8Q787.77 545.55 783.37 545.55L699.709 545.55Q700.925 553.072 704.61 559.41Q710.11 568.87 719.79 574.37Q729.47 579.87 742.01 579.87Q748.83 579.87 755.98 577.34Q763.13 574.81 767.53 571.51Q770.83 569.09 774.68 568.98Q778.53 568.87 781.39 571.29Q785.13 574.59 785.35 578.55Q785.57 582.51 781.83 585.37Q774.35 591.31 763.24 595.05Q752.13 598.79 742.01 598.79ZM232.237 527.95Q233.369 521.651 236.01 516.18Q240.63 506.61 249.54 501.11Q258.45 495.61 270.99 495.61Q281.99 495.61 289.69 500.67Q297.39 505.73 301.57 514.42Q304.543 520.601 305.513 527.95L232.237 527.95ZM703.73 516.18Q701.089 521.652 699.957 527.95L773.233 527.95Q772.263 520.601 769.29 514.42Q765.11 505.73 757.41 500.67Q749.71 495.61 738.71 495.61Q726.17 495.61 717.26 501.11Q708.35 506.61 703.73 516.18ZM408.93 578.99Q420.37 578.99 429.17 573.71Q437.97 568.43 442.92 559.19Q447.87 549.95 447.87 537.85Q447.87 525.75 442.92 516.4Q437.97 507.05 429.17 501.77Q420.37 496.49 408.93 496.49Q397.49 496.49 388.69 501.77Q379.89 507.05 374.83 516.4Q369.77 525.75 369.77 537.85Q369.77 549.95 374.83 559.19Q379.89 568.43 388.69 573.71Q397.49 578.99 408.93 578.99Z" />
    </g>
  </g>
</svg>